<svg xmlns="http://www.w3.org/2000/svg" viewBox="0 0 77.371 77.371"><path d="M38.686,0A38.686,38.686,0,1,1,0,38.686,38.686,38.686,0,0,1,38.686,0Z" fill="#070a65"/><path d="M51.682 45.628v-4.52l-1.908.742-.006-.013-.045-.083a4.911 4.911 0 0 0-3.245-2.171l-4.6-.837v-.36a7.008 7.008 0 0 0 3.366-4.708 2.8 2.8 0 0 0 2.231-2.74v-6.9a4.387 4.387 0 0 0-3.134-4.209l-.35-.35a8.614 8.614 0 0 0-14.705 6.091v5.378a2.8 2.8 0 0 0 2.231 2.74 7.009 7.009 0 0 0 3.366 4.708v.36l-4.6.835a4.912 4.912 0 0 0-3.243 2.169l-.042.1-1.92-.746v4.52a2.1 2.1 0 0 0-2.1 2.1v2.8a2.1 2.1 0 0 0 2.1 2.1v2.577l13.292 5.17 13.292-5.17v-2.578a2.1 2.1 0 0 0 2.1-2.1v-2.8a2.1 2.1 0 0 0-2.101-2.096zm-8.478-5.22l3.03.55a3.5 3.5 0 0 1 2.209 1.41l-6.768 2.632zm-6.848-1.382a6.969 6.969 0 0 0 4.079 0l-2.04 1.53zm.975 2.48l-1.428 1.427-.926-2.778.446-.08zm4.033-1.43l.446.08-.926 2.778-1.428-1.427zm4.022-7.93v-2.413a1.387 1.387 0 0 1 0 2.409zm-13.99 0a1.387 1.387 0 0 1 0-2.409zm0-4.7v.8a2.775 2.775 0 0 0-.7.29V25.56a7.215 7.215 0 0 1 12.317-5.1l.617.618.188.046a2.99 2.99 0 0 1 2.269 2.905v4.5a2.749 2.749 0 0 0-.7-.29v-.8h-2.218a6.085 6.085 0 0 1-4.845-2.421l-.556-.743-1.4 1.39a6.019 6.019 0 0 1-4.283 1.773zm1.4 4.9v-3.53a7.4 7.4 0 0 0 4.572-2.151l.272-.272a7.494 7.494 0 0 0 5.529 2.456h.82v3.5a5.6 5.6 0 1 1-11.193 0zm-2.24 8.623l3.03-.55 1.53 4.593-6.77-2.632a3.5 3.5 0 0 1 2.209-1.419zm-6.15 9.557v-2.8a.7.7 0 0 1 .7-.7 2.1 2.1 0 1 1 0 4.2.7.7 0 0 1-.7-.7zm13.292 8.072l-11.198-4.352v-1.918a3.491 3.491 0 0 0 0-6.4v-2.775l11.193 4.353zm-2.077-13.4l2.777-2.777 2.777 2.777-2.777 1.08zm14.664 9.048L39.1 58.596v-11.1l11.193-4.353v2.772a3.491 3.491 0 0 0 0 6.4zm2.1-3.72a.7.7 0 0 1-.7.7 2.1 2.1 0 1 1 0-4.2.7.7 0 0 1 .7.7z" fill="#ffc262"/></svg>